<?xml version="1.0" standalone="no"?>
<!DOCTYPE svg PUBLIC "-//W3C//DTD SVG 20010904//EN"
 "http://www.w3.org/TR/2001/REC-SVG-20010904/DTD/svg10.dtd">
<svg version="1.0" xmlns="http://www.w3.org/2000/svg"
 width="1139.000000pt" height="1280.000000pt" viewBox="0 0 1139.000000 1280.000000"
 preserveAspectRatio="xMidYMid meet">
<metadata>
Created by potrace 1.16, written by Peter Selinger 2001-2019
</metadata>
<g transform="translate(0.000000,1280.000000) scale(0.100000,-0.100000)"
fill="#000000" stroke="none">
<path d="M5375 11140 c-191 -8 -214 -10 -449 -41 -734 -98 -1390 -357 -1981
-782 -447 -322 -888 -802 -1147 -1247 -496 -854 -719 -1601 -721 -2415 -3
-811 231 -1606 684 -2332 49 -78 89 -147 89 -153 0 -12 149 -200 159 -200 3 0
90 65 192 143 103 78 282 214 399 302 117 88 505 382 864 653 1192 904 1437
1089 2016 1527 316 239 701 530 855 647 153 116 287 212 296 212 14 1 127
-113 720 -727 l94 -98 250 197 c608 478 677 529 700 520 8 -3 100 -113 206
-245 106 -133 196 -241 200 -241 7 0 80 93 410 530 69 91 177 233 239 315 63
83 206 272 319 420 112 149 252 333 311 410 259 340 348 460 346 463 -2 2
-2447 -884 -2549 -924 -10 -3 -16 -12 -14 -18 3 -7 77 -114 166 -240 89 -125
161 -232 161 -237 0 -13 -45 -50 -563 -467 -167 -134 -168 -134 -189 -116 -11
11 -156 165 -322 344 -165 179 -332 358 -371 398 l-71 74 -189 -144 c-105 -79
-390 -295 -635 -479 -245 -185 -470 -354 -500 -377 -30 -23 -58 -41 -62 -39
-3 1 -58 70 -120 152 -63 83 -260 341 -437 575 -178 234 -330 435 -338 447
-16 24 -18 23 102 38 147 19 342 90 470 172 186 121 318 322 355 541 l12 74
117 -9 c64 -4 147 -8 185 -8 l69 0 84 135 c46 74 83 138 83 142 0 5 -122 8
-270 8 -208 0 -271 3 -274 13 -2 6 -11 43 -20 81 -20 81 -41 125 -90 189 -20
26 -33 47 -28 48 30 3 369 -3 414 -7 l56 -6 101 151 c56 83 101 153 101 156 0
3 -422 5 -937 5 l-938 -1 -60 -82 c-33 -45 -77 -106 -98 -135 -22 -29 -36 -56
-32 -60 4 -4 142 -10 308 -13 269 -6 311 -9 382 -29 110 -30 224 -92 290 -156
49 -49 95 -117 95 -143 0 -7 -159 -9 -451 -8 l-452 2 -90 -132 c-50 -73 -89
-135 -86 -137 2 -2 256 -10 564 -16 308 -7 563 -16 568 -20 13 -11 -21 -158
-53 -224 -73 -154 -228 -264 -439 -313 -80 -18 -401 -29 -483 -15 l-57 9 -3
-151 c-2 -87 1 -157 7 -167 6 -10 253 -310 550 -668 297 -359 541 -656 543
-660 2 -5 -59 -56 -135 -113 -362 -274 -1447 -1091 -2360 -1778 -248 -187
-456 -340 -462 -340 -17 0 -127 187 -226 385 -221 445 -330 780 -404 1245 -44
269 -55 423 -55 745 0 331 9 451 60 745 98 571 324 1134 624 1550 33 47 81
116 106 153 667 1010 1751 1596 3199 1729 211 20 759 17 905 -5 462 -68 834
-181 1225 -371 426 -208 779 -461 1131 -811 278 -277 527 -590 673 -847 28
-50 37 -58 62 -58 36 0 145 44 178 71 l25 20 -28 57 c-191 395 -509 810 -853
1112 -575 506 -1313 856 -2148 1020 -370 72 -715 97 -1130 80z"/>
<path d="M9528 7401 c-20 -20 -24 -36 -6 -25 7 4 8 3 4 -5 -4 -6 -11 -9 -16
-6 -5 3 -18 -7 -30 -22 -20 -27 -84 -104 -105 -127 -6 -6 -28 -33 -50 -61 -22
-27 -44 -55 -50 -61 -5 -6 -26 -30 -45 -54 -41 -51 -90 -109 -108 -128 -7 -8
-10 -18 -6 -23 3 -5 2 -8 -3 -7 -9 3 -63 -55 -109 -117 -16 -22 -37 -49 -47
-60 -10 -11 -40 -47 -65 -79 -26 -33 -62 -75 -79 -94 -18 -19 -33 -39 -33 -44
0 -4 -7 -8 -15 -8 -8 0 -15 4 -15 8 0 5 -10 19 -21 31 -12 13 -38 44 -57 70
-19 25 -38 48 -42 51 -3 3 -21 26 -40 53 -36 51 -39 53 -60 35 -12 -11 -12
-10 -1 4 11 15 9 22 -9 48 -12 16 -22 30 -23 30 -6 0 0 -57 6 -67 5 -7 4 -13
-1 -13 -14 0 -20 20 -17 60 2 29 -8 47 -53 105 -31 38 -57 72 -58 74 -2 2 -12
-2 -21 -10 -16 -13 -17 -12 -5 2 10 14 8 49 -4 49 -6 0 -144 -112 -144 -117 0
-3 7 -2 16 1 9 3 12 2 9 -5 -4 -6 -13 -8 -21 -5 -15 6 -61 -33 -56 -47 1 -5
-2 -6 -8 -2 -14 8 -42 -14 -34 -27 3 -5 -1 -8 -9 -6 -9 2 -16 -1 -16 -6 0 -5
-14 -16 -31 -24 -19 -9 -29 -20 -26 -29 3 -8 2 -11 -4 -8 -16 10 -193 -133
-183 -148 3 -6 1 -7 -6 -3 -6 4 -25 -6 -44 -26 -17 -18 -36 -35 -42 -38 -5 -3
-9 -8 -7 -13 1 -4 -1 -6 -5 -6 -20 3 -34 -2 -28 -11 3 -5 -2 -10 -13 -10 -18
0 -76 -52 -68 -61 3 -3 -5 -11 -17 -18 -21 -13 -21 -13 -7 4 14 18 13 18 -12
0 -15 -11 -26 -25 -23 -32 2 -7 -1 -15 -7 -19 -7 -4 -8 -3 -4 4 10 17 -9 15
-23 -1 -6 -8 -7 -18 -3 -22 4 -5 2 -5 -5 -1 -7 4 -22 -3 -34 -15 l-22 -22 -58
64 c-42 46 -61 60 -67 51 -7 -9 -13 -8 -27 8 -19 21 -8 29 13 8 7 -7 12 -8 12
-2 0 20 -58 64 -77 58 -11 -4 -14 -3 -6 3 8 6 9 13 2 23 -7 12 -11 12 -17 2
-7 -10 -11 -10 -22 3 -11 13 -10 15 4 9 26 -10 19 5 -19 42 -40 38 -42 39 -48
22 -2 -7 -3 -4 -1 6 4 25 -304 335 -315 317 -6 -9 -11 -8 -21 4 -11 13 -10 15
4 9 9 -3 16 -3 16 0 0 12 -181 189 -187 182 -4 -3 3 -13 15 -22 12 -8 22 -20
22 -26 0 -6 -11 -1 -25 12 -16 15 -23 30 -20 41 4 12 -1 22 -14 29 -18 9 -32
2 -96 -46 -41 -31 -75 -59 -75 -61 0 -3 8 1 18 8 15 13 16 12 3 -4 -7 -9 -19
-16 -25 -15 -12 3 -279 -193 -272 -199 2 -3 17 3 33 13 l28 18 -20 -22 c-13
-16 -26 -21 -41 -18 -13 4 -26 2 -29 -4 -3 -5 -49 -41 -101 -80 -58 -43 -92
-75 -88 -82 4 -6 3 -8 -3 -5 -6 4 -16 0 -23 -8 -7 -8 -16 -15 -21 -15 -8 0
-124 -82 -139 -97 -3 -3 6 -2 20 2 l25 7 -23 -17 c-12 -9 -26 -14 -31 -10 -5
3 -13 0 -17 -6 -5 -8 -3 -9 6 -4 8 5 11 4 6 -3 -4 -6 -13 -9 -20 -6 -7 3 -27
-11 -45 -31 -17 -20 -31 -30 -31 -24 0 8 -4 8 -15 -1 -8 -7 -12 -16 -9 -21 3
-5 -1 -6 -9 -3 -17 6 -50 -23 -42 -37 4 -5 0 -7 -7 -4 -17 6 -52 -21 -43 -34
3 -6 0 -9 -8 -6 -7 3 -23 -2 -34 -12 -12 -10 -34 -27 -49 -38 -63 -45 -103
-83 -96 -90 4 -5 1 -5 -6 -1 -15 9 -84 -48 -74 -60 4 -4 2 -4 -5 0 -13 7 -239
-161 -235 -176 1 -5 -2 -6 -9 -3 -6 4 -23 -4 -37 -17 -15 -13 -60 -48 -100
-78 -39 -30 -72 -57 -72 -61 0 -4 -9 -9 -21 -12 -13 -4 -18 -10 -13 -18 4 -8
3 -10 -5 -5 -15 9 -93 -52 -85 -66 4 -7 2 -8 -4 -4 -17 11 -169 -104 -156
-117 3 -3 -3 -4 -13 -3 -12 0 -17 -5 -15 -16 2 -11 -3 -15 -15 -12 -11 3 -33
-8 -53 -25 -34 -30 -34 -31 -16 -46 11 -8 16 -15 11 -15 -5 0 -16 7 -25 15
-14 13 -20 11 -49 -15 -18 -17 -36 -30 -40 -30 -14 0 -41 -36 -34 -44 4 -4 0
-4 -10 0 -10 3 -17 1 -17 -5 0 -6 -7 -11 -16 -11 -8 0 -12 -4 -9 -10 3 -5 1
-10 -5 -10 -6 0 -26 -10 -44 -22 -33 -23 -140 -117 -120 -105 6 3 11 0 11 -8
0 -10 -5 -11 -18 -4 -12 6 -22 5 -33 -6 -8 -8 -18 -15 -23 -15 -4 0 -22 -14
-40 -30 -18 -17 -37 -30 -42 -30 -6 0 -11 -4 -11 -8 0 -5 -11 -15 -25 -22 -28
-15 -33 -30 -11 -30 8 0 18 -5 22 -12 7 -11 5 -11 -45 10 -10 4 -12 1 -6 -8 5
-8 4 -11 -3 -6 -9 5 -130 -81 -228 -162 -11 -9 -33 -23 -48 -31 -14 -8 -25
-20 -22 -27 3 -7 -2 -15 -10 -18 -10 -4 -13 -2 -8 7 5 6 -8 0 -27 -15 -18 -15
-64 -49 -101 -75 -37 -26 -65 -53 -63 -60 2 -7 -2 -10 -11 -6 -7 3 -14 0 -14
-6 0 -6 -5 -11 -11 -11 -6 0 -17 -6 -24 -14 -11 -10 -11 -16 -2 -27 10 -11 9
-11 -6 0 -13 11 -20 11 -32 1 -8 -7 -12 -17 -8 -23 4 -6 1 -7 -6 -3 -7 5 -35
-10 -69 -37 -31 -24 -106 -81 -167 -126 -60 -46 -109 -87 -107 -92 1 -5 -2 -8
-6 -7 -5 2 -55 -31 -111 -72 -150 -110 -164 -122 -149 -132 9 -5 6 -7 -9 -6
-28 4 -123 -61 -120 -81 1 -8 -5 -16 -13 -18 -13 -4 -13 -3 0 6 8 6 11 11 5
11 -5 0 -22 -10 -37 -23 -15 -12 -39 -30 -53 -40 -15 -11 -24 -21 -21 -24 3
-3 14 0 23 8 16 13 17 12 4 -4 -8 -10 -20 -16 -28 -13 -19 8 -116 -66 -101
-75 18 -12 1351 -11 1344 0 -3 5 2 7 12 4 19 -5 236 150 225 161 -4 3 1 6 10
6 9 0 19 4 22 10 4 6 -1 7 -12 4 -14 -5 -15 -4 -4 4 8 6 21 8 29 4 11 -4 14
-1 9 10 -3 10 0 19 9 22 10 4 13 2 8 -6 -5 -7 4 -4 18 7 14 11 70 53 124 94
135 103 136 103 121 114 -8 5 -5 6 8 3 13 -3 31 4 50 21 17 14 24 22 16 18 -9
-6 -12 -4 -7 3 4 7 14 12 22 12 8 0 42 21 74 48 98 78 118 92 129 92 6 0 11 4
11 9 0 5 32 32 70 61 39 29 70 56 70 61 0 5 4 8 8 6 14 -3 213 153 207 163 -3
5 0 12 6 16 8 4 9 3 5 -4 -12 -20 8 -13 39 14 17 14 37 30 45 35 13 8 13 10 0
20 -13 9 -12 10 3 5 25 -8 67 21 60 42 -4 14 -3 15 6 2 9 -12 14 -11 38 11 15
14 81 65 145 114 67 49 115 92 111 98 -4 6 0 8 10 4 11 -4 22 2 32 16 8 12 15
18 15 13 0 -5 7 -3 15 4 8 7 12 17 8 23 -3 6 -1 7 5 3 10 -6 30 6 66 40 6 6
25 19 41 30 59 37 86 67 73 77 -9 6 -7 7 6 3 24 -8 46 10 39 32 -4 13 -3 14 5
4 7 -11 19 -6 58 23 27 21 48 44 46 51 -2 9 3 11 13 8 9 -4 36 10 70 37 29 24
72 57 94 73 24 17 37 34 34 42 -4 10 0 12 11 8 12 -5 15 -2 10 11 -6 14 -3 16
14 11 18 -6 21 -4 15 11 -5 15 -3 16 7 6 11 -10 18 -9 36 8 13 12 20 28 17 38
-4 13 -3 13 5 2 5 -7 15 -10 22 -6 8 5 7 12 -6 26 -21 23 -8 25 18 3 16 -16
18 -16 24 0 3 9 10 16 15 16 9 0 23 11 84 63 18 15 38 27 44 27 7 0 9 5 6 10
-3 6 -1 10 5 10 6 0 4 10 -6 25 -9 14 -15 25 -13 26 26 6 57 5 70 -2 11 -5 23
-2 35 9 10 10 34 28 52 41 18 12 30 27 27 32 -4 5 0 7 7 4 7 -2 29 9 48 26 19
17 28 27 20 23 -13 -7 -13 -5 -1 9 14 18 36 24 26 7 -3 -5 -3 -10 2 -10 4 0
41 -32 81 -70 42 -42 77 -68 84 -64 7 4 8 3 4 -5 -10 -15 13 -43 27 -34 5 3 7
2 4 -4 -7 -11 104 -125 119 -122 20 3 34 -2 34 -12 0 -8 -5 -8 -15 1 -8 7 -15
9 -15 4 0 -4 123 -130 272 -281 l273 -272 25 27 c14 15 30 29 35 30 11 2 89
60 122 91 12 12 27 21 33 21 6 0 8 5 5 10 -3 6 0 10 8 10 8 0 22 9 31 19 17
18 17 20 0 29 -16 9 -14 10 8 9 14 -1 23 -6 20 -12 -3 -5 16 10 43 34 28 24
49 47 48 52 -2 4 3 6 10 4 7 -3 33 14 60 38 26 24 47 42 47 40 0 -3 21 13 47
34 95 77 94 75 80 92 -11 14 -10 14 6 2 15 -12 20 -11 40 5 43 36 66 62 59 68
-3 4 2 4 13 0 14 -6 17 -4 12 8 -3 10 0 19 9 22 10 4 13 1 9 -7 -4 -6 2 -2 13
10 11 12 22 20 24 18 3 -3 22 11 44 31 21 19 31 33 22 30 -10 -3 -18 -2 -18 3
0 4 25 8 55 8 31 0 51 -3 46 -6 -5 -4 3 -21 18 -38 16 -18 32 -29 36 -25 5 4
5 2 2 -4 -4 -6 5 -22 19 -35 22 -21 24 -21 18 -4 -4 11 -4 17 0 14 4 -4 9 -17
11 -29 2 -13 12 -31 22 -40 10 -9 43 -45 73 -81 30 -35 72 -82 94 -104 21 -22
54 -59 73 -82 20 -24 39 -40 44 -37 5 3 8 0 7 -8 -2 -7 2 -12 9 -11 7 2 10 -4
7 -12 -8 -21 9 -19 36 5 12 11 26 17 30 15 13 -8 81 75 74 88 -4 7 -3 9 1 4 5
-4 19 3 32 15 25 24 32 48 8 28 -9 -7 -18 -10 -22 -6 -9 9 -1 15 25 19 23 3
91 65 92 82 0 6 -5 3 -11 -5 -9 -13 -10 -13 -6 0 2 8 9 15 16 15 19 0 92 88
86 102 -12 31 -15 46 -4 26 7 -13 15 -23 19 -23 4 0 24 21 46 47 21 26 74 87
118 136 75 84 78 89 60 103 -18 14 -18 15 2 5 19 -9 27 -3 67 42 25 29 64 72
87 97 l41 45 -5 190 c-3 105 -7 352 -10 550 -4 315 -7 427 -10 424 -1 0 -9 -8
-18 -18z"/>
<path d="M6710 2460 l0 -750 140 0 140 0 0 378 0 377 48 32 c75 51 120 66 197
67 100 0 164 -39 185 -115 6 -19 10 -187 10 -386 l0 -353 140 0 140 0 0 348
c0 209 -4 372 -11 407 -34 185 -175 295 -376 295 -113 0 -193 -25 -290 -92
l-43 -29 -2 283 -3 283 -137 3 -138 3 0 -751z"/>
<path d="M8610 2460 l0 -750 140 0 140 0 0 750 0 750 -140 0 -140 0 0 -750z"/>
<path d="M8042 3173 c-133 -86 -76 -270 86 -281 66 -4 132 24 166 71 30 41 29
121 -2 165 -54 74 -171 96 -250 45z"/>
<path d="M1340 3055 l0 -115 240 0 240 0 0 -615 0 -615 150 0 150 0 0 615 0
615 243 2 242 3 0 110 0 110 -632 3 -633 2 0 -115z"/>
<path d="M3111 3152 c-5 -9 -32 -69 -59 -132 -28 -63 -88 -203 -135 -310 -46
-107 -130 -298 -185 -425 -55 -126 -132 -303 -171 -392 -39 -89 -71 -166 -71
-172 0 -18 235 -14 275 5 37 17 52 44 125 232 l45 112 335 0 335 0 49 -122
c77 -192 84 -205 121 -222 41 -20 275 -23 275 -5 0 7 -67 165 -149 353 -82
187 -204 467 -271 621 -67 154 -141 323 -164 375 l-42 95 -151 3 c-138 2 -153
1 -162 -16z m174 -279 c3 -16 58 -155 121 -311 63 -155 114 -287 114 -292 0
-6 -96 -10 -250 -10 -137 0 -250 4 -250 9 0 4 47 124 105 266 58 143 113 283
122 312 19 60 28 66 38 26z"/>
<path d="M4110 3161 c0 -5 33 -53 73 -107 40 -55 89 -121 108 -148 64 -91 74
-105 192 -266 65 -88 120 -166 123 -173 2 -7 -115 -178 -261 -382 l-265 -370
147 -3 c131 -2 150 0 173 16 24 18 88 106 312 429 l105 153 189 -281 c104
-155 199 -290 213 -300 21 -17 42 -19 183 -19 130 0 159 3 155 13 -5 13 -62
95 -399 569 -65 91 -118 171 -118 177 0 6 115 165 255 353 l256 343 -143 3
c-79 1 -153 0 -165 -3 -14 -3 -84 -94 -209 -273 -103 -147 -190 -271 -194
-275 -4 -5 -90 111 -191 258 -100 146 -192 273 -203 281 -16 11 -57 14 -178
14 -87 0 -158 -4 -158 -9z"/>
<path d="M5948 2745 c-179 -44 -282 -155 -282 -305 0 -55 5 -75 30 -121 49
-87 122 -127 362 -199 129 -39 167 -69 166 -129 -4 -126 -205 -160 -384 -65
-81 43 -116 34 -171 -47 l-40 -59 48 -30 c26 -17 84 -42 128 -57 106 -34 289
-43 385 -19 169 43 263 131 290 272 10 52 10 70 -4 118 -31 107 -106 159 -316
221 -135 40 -173 56 -207 88 -49 45 -11 135 65 157 79 21 142 13 280 -38 29
-10 63 -17 75 -15 13 3 39 28 61 60 l39 56 -24 20 c-38 32 -146 79 -213 93
-78 17 -215 16 -288 -1z"/>
<path d="M9490 2744 c-75 -16 -237 -93 -268 -127 l-22 -23 35 -51 c18 -28 41
-53 50 -57 36 -14 87 -4 158 30 167 79 310 64 363 -38 9 -17 18 -64 21 -104
l6 -74 -84 0 c-218 0 -437 -68 -534 -165 -126 -125 -79 -329 94 -409 40 -18
64 -21 176 -21 148 1 198 15 304 86 32 21 61 39 64 39 4 0 12 -18 18 -40 19
-64 38 -74 140 -78 l89 -4 0 354 c0 286 -3 365 -15 413 -31 120 -113 213 -225
257 -71 28 -271 35 -370 12z m340 -681 l-1 -88 -43 -33 c-121 -91 -317 -97
-364 -11 -7 14 -11 43 -8 69 3 35 11 50 35 71 51 42 184 76 309 78 l72 1 0
-87z"/>
<path d="M8000 2225 l0 -515 140 0 140 0 0 515 0 515 -140 0 -140 0 0 -515z"/>
</g>
</svg>
